<svg xmlns="http://www.w3.org/2000/svg" xmlns:xlink="http://www.w3.org/1999/xlink" viewBox="0 0 99.17 99.17"><defs><linearGradient id="未命名漸層_720" x1="49.59" y1="98.45" x2="49.59" y2="0.72" gradientUnits="userSpaceOnUse"><stop offset="0" stop-color="#fbfbfb"/><stop offset="1" stop-color="#dedde1"/></linearGradient><linearGradient id="未命名漸層_34" x1="14.52" y1="14.52" x2="84.65" y2="84.65" gradientUnits="userSpaceOnUse"><stop offset="0" stop-color="#fff"/><stop offset="0.4" stop-color="#fcfcfc"/><stop offset="0.67" stop-color="#f3f3f3"/><stop offset="0.9" stop-color="#e4e4e4"/><stop offset="1" stop-color="#dbdbdb"/></linearGradient><linearGradient id="未命名漸層_18" x1="49.59" y1="90.57" x2="49.59" y2="8.6" gradientUnits="userSpaceOnUse"><stop offset="0" stop-color="#9e89bf"/><stop offset="0.2" stop-color="#9983bc"/><stop offset="0.46" stop-color="#8b73b2"/><stop offset="0.76" stop-color="#7358a3"/><stop offset="1" stop-color="#5b3c93"/></linearGradient><linearGradient id="未命名漸層_29" x1="49.59" y1="85.16" x2="49.59" y2="14.02" gradientUnits="userSpaceOnUse"><stop offset="0" stop-color="#fbfbfb"/><stop offset="1" stop-color="#dbdbdb"/></linearGradient><linearGradient id="linear-gradient" x1="49.59" y1="80.43" x2="49.59" y2="18.75" gradientUnits="userSpaceOnUse"><stop offset="0" stop-color="#d5d5d5"/><stop offset="1" stop-color="#fff"/></linearGradient><linearGradient id="linear-gradient-2" x1="46.87" y1="63.08" x2="46.87" y2="22.28" gradientUnits="userSpaceOnUse"><stop offset="0" stop-color="#fff"/><stop offset="1" stop-color="#fff"/></linearGradient><linearGradient id="linear-gradient-3" x1="53.53" y1="57" x2="63.48" y2="75.19" gradientUnits="userSpaceOnUse"><stop offset="0" stop-color="#8b8b8b"/><stop offset="0.46" stop-color="#c2c2c2"/><stop offset="1" stop-color="#fff"/></linearGradient><linearGradient id="未命名漸層_18-2" x1="49" y1="27.61" x2="49" y2="61.53" xlink:href="#未命名漸層_18"/></defs><g style="isolation:isolate"><g id="圖層_2" data-name="圖層 2"><g id="圖層_3" data-name="圖層 3"><circle cx="49.59" cy="49.58" r="48.86" stroke-width="1.45" fill="url(#未命名漸層_720)" stroke="url(#未命名漸層_34)"/><path d="M49.58,8.6a41,41,0,1,0,41,41A41,41,0,0,0,49.58,8.6Zm0,78.37A37.39,37.39,0,1,1,87,49.58,37.39,37.39,0,0,1,49.58,87Z" fill="url(#未命名漸層_18)"/><path d="M85.16,49.58A35.57,35.57,0,1,1,49.59,14,35.58,35.58,0,0,1,85.16,49.58Z" fill="url(#未命名漸層_29)"/><circle cx="49.59" cy="49.58" r="32.26" fill="#fff"/><path d="M80.43,49.58A30.84,30.84,0,1,1,49.59,18.75,30.84,30.84,0,0,1,80.43,49.58Z" fill="url(#linear-gradient)"/><path d="M24,51.18A26,26,0,0,1,71.45,36.43,26,26,0,1,0,26.88,63.08,25.9,25.9,0,0,1,24,51.18Z" fill="url(#linear-gradient-2)"/><path d="M72.09,28.72A30.79,30.79,0,0,1,18.77,49.35c0,.14,0,.27,0,.42A30.84,30.84,0,1,0,72.09,28.72Z" opacity="0.1" fill="url(#linear-gradient-3)" style="mix-blend-mode:multiply"/><path d="M71.88,47.18l-7.92-7V31.53a1.4,1.4,0,0,0-1.4-1.4H59.09a1.4,1.4,0,0,0-1.4,1.4v3.09l-7.07-6.26a1,1,0,0,0-1.23,0L28.12,47.18A1.81,1.81,0,0,0,28,49.8l1.78,1.77a1.81,1.81,0,0,0,2.47.08L49.39,36.5a.93.93,0,0,1,1.23,0l17.1,15.15a1.81,1.81,0,0,0,2.47-.08L72,49.8A1.79,1.79,0,0,0,71.88,47.18Z" fill="#bbb7d2"/><path d="M66.27,52.64,50.77,39a1.18,1.18,0,0,0-1.54,0L33.74,52.64a1.39,1.39,0,0,0-.46,1V64.32A1.65,1.65,0,0,0,34.93,66H45.17V60.14a4.84,4.84,0,1,1,9.67,0V66H65.08a1.65,1.65,0,0,0,1.65-1.65V53.67A1.39,1.39,0,0,0,66.27,52.64Z" fill="#bbb7d2"/><path d="M70.88,47.18l-7.92-7V31.53a1.41,1.41,0,0,0-1.41-1.4H58.09a1.41,1.41,0,0,0-1.41,1.4v3.09l-7.07-6.26a.94.94,0,0,0-1.22,0L27.12,47.18A1.79,1.79,0,0,0,27,49.8l1.77,1.77a1.81,1.81,0,0,0,2.47.08L48.39,36.5a.92.92,0,0,1,1.22,0L66.72,51.65a1.8,1.8,0,0,0,2.46-.08L71,49.8A1.81,1.81,0,0,0,70.88,47.18Z" fill="url(#未命名漸層_18-2)"/><path d="M65.26,52.64,49.77,39a1.18,1.18,0,0,0-1.54,0L32.73,52.64a1.39,1.39,0,0,0-.46,1V64.32A1.65,1.65,0,0,0,33.92,66H44.16V60.14a4.84,4.84,0,0,1,9.68,0V66H64.07a1.65,1.65,0,0,0,1.65-1.65V53.67A1.36,1.36,0,0,0,65.26,52.64Z" fill="url(#未命名漸層_18-2)"/></g></g></g></svg>